HIERARCHY
ROOT Hips
{
	OFFSET 0.00000 0.00000 0.00000
	CHANNELS 6 Xposition Yposition Zposition Zrotation Yrotation Xrotation 
	JOINT LHipJoint
	{
		OFFSET 0 0 0
		CHANNELS 3 Zrotation Yrotation Xrotation
		JOINT LeftUpLeg
		{
			OFFSET 1.55766 -1.60504 1.11378
			CHANNELS 3 Zrotation Yrotation Xrotation
			JOINT LeftLeg
			{
				OFFSET 2.29047 -6.29302 0.00000
				CHANNELS 3 Zrotation Yrotation Xrotation
				JOINT LeftFoot
				{
					OFFSET 2.52265 -6.93093 0.00000
					CHANNELS 3 Zrotation Yrotation Xrotation
					JOINT LeftToeBase
					{
						OFFSET 0.17633 -0.48446 2.02656
						CHANNELS 3 Zrotation Yrotation Xrotation
						End Site
						{
							OFFSET 0.00000 -0.00000 1.04989
						}
					}
				}
			}
		}
	}
	JOINT RHipJoint
	{
		OFFSET 0 0 0
		CHANNELS 3 Zrotation Yrotation Xrotation
		JOINT RightUpLeg
		{
			OFFSET -1.48599 -1.60504 1.11378
			CHANNELS 3 Zrotation Yrotation Xrotation
			JOINT RightLeg
			{
				OFFSET -2.27280 -6.24448 0.00000
				CHANNELS 3 Zrotation Yrotation Xrotation
				JOINT RightFoot
				{
					OFFSET -2.50834 -6.89161 0.00000
					CHANNELS 3 Zrotation Yrotation Xrotation
					JOINT RightToeBase
					{
						OFFSET -0.26967 -0.74090 2.08741
						CHANNELS 3 Zrotation Yrotation Xrotation
						End Site
						{
							OFFSET -0.00000 -0.00000 1.10614
						}
					}
				}
			}
		}
	}
	JOINT LowerBack
	{
		OFFSET 0 0 0
		CHANNELS 3 Zrotation Yrotation Xrotation
		JOINT Spine
		{
			OFFSET 0.06481 2.02437 -0.08472
			CHANNELS 3 Zrotation Yrotation Xrotation
			JOINT Spine1
			{
				OFFSET 0.00015 1.96711 0.18069
				CHANNELS 3 Zrotation Yrotation Xrotation
				JOINT Neck
				{
					OFFSET 0 0 0
					CHANNELS 3 Zrotation Yrotation Xrotation
					JOINT Neck1
					{
						OFFSET -0.29961 1.68293 -0.13041
						CHANNELS 3 Zrotation Yrotation Xrotation
						JOINT Head
						{
							OFFSET 0.59697 1.61501 -0.14669
							CHANNELS 3 Zrotation Yrotation Xrotation
							End Site
							{
								OFFSET 0.22973 1.74906 -0.10148
							}
						}
					}
				}
				JOINT LeftShoulder
				{
					OFFSET 0 0 0
					CHANNELS 3 Zrotation Yrotation Xrotation
					JOINT LeftArm
					{
						OFFSET 3.37968 1.02893 0.31147
						CHANNELS 3 Zrotation Yrotation Xrotation
						JOINT LeftForeArm
						{
							OFFSET 5.19807 -0.00000 -0.00000
							CHANNELS 3 Zrotation Yrotation Xrotation
							JOINT LeftHand
							{
								OFFSET 3.09370 -0.00000 -0.00000
								CHANNELS 3 Zrotation Yrotation Xrotation
								JOINT LeftFingerBase
								{
									OFFSET 0 0 0
									CHANNELS 3 Zrotation Yrotation Xrotation
									JOINT LeftHandIndex1
									{
										OFFSET 0.67263 -0.00000 -0.00000
										CHANNELS 3 Zrotation Yrotation Xrotation
										End Site
										{
											OFFSET 0.54229 -0.00000 -0.00000
										}
									}
								}
								JOINT LThumb
								{
									OFFSET 0 0 0
									CHANNELS 3 Zrotation Yrotation Xrotation
									End Site
									{
										OFFSET 0.55057 -0.00000 0.55057
									}
								}
							}
						}
					}
				}
				JOINT RightShoulder
				{
					OFFSET 0 0 0
					CHANNELS 3 Zrotation Yrotation Xrotation
					JOINT RightArm
					{
						OFFSET -3.38254 0.96355 -0.16120
						CHANNELS 3 Zrotation Yrotation Xrotation
						JOINT RightForeArm
						{
							OFFSET -5.45222 -0.00000 -0.00000
							CHANNELS 3 Zrotation Yrotation Xrotation
							JOINT RightHand
							{
								OFFSET -3.01284 -0.00000 -0.00000
								CHANNELS 3 Zrotation Yrotation Xrotation
								JOINT RightFingerBase
								{
									OFFSET 0 0 0
									CHANNELS 3 Zrotation Yrotation Xrotation
									JOINT RightHandIndex1
									{
										OFFSET -0.62230 -0.00000 -0.00000
										CHANNELS 3 Zrotation Yrotation Xrotation
										End Site
										{
											OFFSET -0.50171 -0.00000 -0.00000
										}
									}
								}
								JOINT RThumb
								{
									OFFSET 0 0 0
									CHANNELS 3 Zrotation Yrotation Xrotation
									End Site
									{
										OFFSET -0.50937 -0.00000 0.50937
									}
								}
							}
						}
					}
				}
			}
		}
	}
}
MOTION
Frames: 13
Frame Time: .0083333
-3.7089 16.4867 34.5044 -150.5370 -80.4257 -173.3980 0.0000 0.0000 0.0000 -9.1505 -8.2294 -46.8774 0.3309 3.6971 10.2260 -0.0275 -3.1254 0.0059 0.9843 -6.3149 -17.7009 0.0000 0.0000 0.0000 36.9222 -3.8036 -51.2081 -0.2127 -2.9693 8.1933 5.3884 37.1334 13.8743 -0.0090 -0.6118 1.6813 4.4812 2.9157 8.6605 1.4230 3.8226 6.2717 -1.2915 1.8944 1.8753 -32.1646 -4.9408 20.3451 34.7617 -18.7979 18.4587 20.2342 -11.8261 9.2542 -0.0000 0.0000 0.0000 -69.0886 31.2486 110.7694 85.4836 -59.9228 -56.0897 -0.0000 0.0000 -104.2740 -5.5031 -8.3634 0.8028 -7.1250 0.0000 -0.0000 -22.9315 21.7065 13.9582 -0.0000 0.0000 0.0000 79.1515 22.7015 103.4786 -100.4843 59.5806 -69.0669 0.0000 -0.0000 -26.1066 -7.5554 -5.6173 0.7438 7.1250 -0.0000 -0.0000 15.8401 -35.2644 3.9126
-3.7367 16.4910 34.4980 -152.3730 -80.3062 -172.2700 0.0000 0.0000 0.0000 -9.7078 -7.9287 -45.8556 0.3146 3.6054 9.9691 -0.0281 -3.1913 -0.0676 0.9819 -6.3075 -17.6793 0.0000 0.0000 0.0000 36.9074 -4.7392 -51.0952 -0.2367 -3.1308 8.6432 5.6011 37.6981 14.7056 -0.0351 -1.2092 3.3245 4.1346 2.9028 8.2850 1.3389 3.7834 6.1876 -1.1667 1.8725 1.9703 -32.1669 -4.9335 20.3226 34.8215 -18.8086 18.3347 20.2530 -11.8459 9.2253 -0.0000 -0.0000 0.0000 -69.0991 31.8166 110.3856 86.1346 -59.9435 -56.6531 -0.0000 0.0000 -103.9070 -5.2409 -8.3717 0.7651 -7.1250 0.0000 -0.0000 -22.7552 21.7028 13.8335 -0.0000 -0.0000 0.0000 79.3893 22.8462 103.4418 -100.0671 59.6136 -68.7070 0.0000 -0.0000 -25.7973 -9.9917 -4.6320 0.8151 7.1250 -0.0000 -0.0000 13.6868 -34.4217 3.6409
-3.7651 16.4930 34.4915 -154.1790 -80.1895 -171.1580 0.0000 0.0000 0.0000 -10.2569 -7.6304 -44.8473 0.2982 3.5110 9.7049 -0.0288 -3.2542 -0.1342 0.9791 -6.2988 -17.6538 0.0000 0.0000 0.0000 36.8691 -5.6840 -51.0188 -0.2636 -3.3031 9.1237 5.8118 38.2441 15.6004 -0.0804 -1.8290 5.0332 3.7859 2.8882 7.8992 1.2540 3.7442 6.1005 -1.0412 1.8504 2.0687 -32.1718 -4.9317 20.3059 34.8965 -18.8260 18.1893 20.2802 -11.8698 9.1941 -0.0000 -0.0000 0.0000 -69.1032 32.3881 110.0100 86.8224 -59.9618 -57.2485 -0.0000 0.0000 -103.5540 -4.7461 -8.3706 0.6925 -7.1250 0.0000 -0.0000 -22.4242 21.7107 13.5925 -0.0000 -0.0000 0.0000 79.7763 22.9854 103.3655 -99.5336 59.6538 -68.2467 0.0000 -0.0000 -25.3245 -12.0842 -3.9712 0.8495 7.1250 -0.0000 -0.0000 11.8912 -33.8560 3.3108
-3.7936 16.4960 34.4865 -156.0100 -80.0880 -170.0050 0.0000 0.0000 0.0000 -10.8103 -7.3551 -43.8512 0.2819 3.4145 9.4349 -0.0294 -3.3142 -0.1952 0.9798 -6.3011 -17.6606 0.0000 0.0000 0.0000 36.7987 -6.6501 -50.9898 -0.2940 -3.4865 9.6364 6.0221 38.7791 16.5280 -0.1437 -2.4429 6.7314 3.4363 2.8688 7.4998 1.1684 3.7010 6.0108 -0.9152 1.8260 2.1730 -32.1617 -4.9441 20.2920 34.9718 -18.8537 18.0207 20.2974 -11.8959 9.1567 -0.0000 -0.0000 0.0000 -69.1018 32.9562 109.6462 87.5405 -59.9771 -57.8702 -0.0000 0.0000 -103.2140 -4.1219 -8.3701 0.6010 -7.1250 0.0000 -0.0000 -22.0050 21.7185 13.2912 -0.0000 -0.0000 0.0000 80.1122 23.1386 103.2515 -99.0182 59.6905 -67.8019 0.0000 -0.0000 -24.7233 -13.5215 -3.8048 0.9142 7.1250 -0.0000 -0.0000 10.7074 -33.7458 2.9998
-3.8221 16.4988 34.4848 -157.8900 -80.0072 -168.7970 0.0000 0.0000 0.0000 -11.3055 -7.1872 -42.8191 0.2650 3.3115 9.1472 -0.0278 -3.2586 -0.2655 0.9816 -6.3067 -17.6770 0.0000 0.0000 0.0000 37.4885 -8.2884 -51.4900 -0.3286 -3.6844 10.1905 6.6285 40.2626 18.0941 -0.2242 -3.0481 8.4128 3.1190 2.8357 7.1051 1.0731 3.6445 5.9137 -0.8172 1.7960 2.2704 -32.1494 -4.9591 20.2865 35.0458 -18.8831 17.8415 20.3112 -11.9223 9.1141 0.0000 -0.0000 0.0000 -69.0900 33.5358 109.2917 88.2848 -59.9889 -58.5146 -0.0000 0.0000 -102.8800 -3.5270 -8.3720 0.5142 -7.1250 0.0000 -0.0000 -21.6034 21.7224 13.0073 0.0000 -0.0000 0.0000 80.3754 23.2795 103.0888 -98.5798 59.7200 -67.4234 0.0000 -0.0000 -23.9727 -13.9132 -4.1532 1.0278 7.1250 -0.0000 -0.0000 10.4394 -34.1138 2.8279
-3.8505 16.5016 34.4857 -159.7690 -79.9444 -167.5820 0.0000 0.0000 0.0000 -11.8106 -7.0401 -41.7668 0.2460 3.1914 8.8120 -0.0264 -3.1965 -0.3088 0.9840 -6.3140 -17.6982 0.0000 0.0000 0.0000 36.2665 -8.0801 -50.8001 -0.3659 -3.8855 10.7547 6.1877 39.2013 18.1162 -0.3231 -3.6536 10.1040 2.9186 2.8153 6.7270 0.9229 3.6144 5.8043 -0.8429 1.7838 2.3598 -32.0897 -4.9982 20.3125 35.1571 -18.9481 17.6378 20.3345 -11.9674 9.0746 -0.0000 -0.0000 0.0000 -68.9144 34.0832 109.0570 89.0667 -59.9967 -59.1917 -0.0000 0.0000 -102.5560 -3.0325 -8.4125 0.4441 -7.1250 0.0000 -0.0000 -21.2627 21.6883 12.7881 -0.0000 -0.0000 0.0000 80.5352 23.3911 102.7831 -98.2646 59.7403 -67.1511 0.0000 -0.0000 -23.0728 -13.7748 -4.6365 1.1353 7.1250 -0.0000 -0.0000 10.6216 -34.5969 2.7520
-3.8790 16.5044 34.4889 -161.7280 -79.8887 -166.2710 0.0000 0.0000 0.0000 -12.3392 -6.9107 -40.7099 0.2258 3.0584 8.4414 -0.0250 -3.1280 -0.3332 0.9914 -6.3370 -17.7655 0.0000 0.0000 0.0000 35.1776 -8.0098 -50.2523 -0.4082 -4.1016 11.3626 5.8440 38.3407 18.2778 -0.4446 -4.2784 11.8612 2.7540 2.7978 6.3460 0.7517 3.5920 5.6835 -0.9105 1.7770 2.4435 -32.0166 -5.0447 20.3551 35.2813 -19.0254 17.4222 20.3619 -12.0198 9.0345 0.0000 0.0000 0.0000 -68.6940 34.6256 108.8596 89.8300 -59.9999 -59.8528 -0.0000 0.0000 -102.2120 -2.6649 -8.4679 0.3927 -7.1250 0.0000 -0.0000 -21.0052 21.6387 12.6356 0.0000 0.0000 0.0000 80.5539 23.4975 102.4147 -98.0402 59.7543 -66.9573 0.0000 -0.0000 -22.0215 -13.2696 -5.0451 1.1881 7.1250 -0.0000 -0.0000 11.0953 -34.9860 2.7718
-3.9076 16.5067 34.4929 -163.6560 -79.8328 -164.9770 0.0000 0.0000 0.0000 -12.8634 -6.7839 -39.6598 0.2058 2.9209 8.0587 -0.0238 -3.0576 -0.3449 0.9978 -6.3569 -17.8235 0.0000 0.0000 0.0000 34.2289 -8.0618 -49.8056 -0.4540 -4.3224 11.9855 5.5820 37.6698 18.5356 -0.5830 -4.8892 13.5928 2.6163 2.7774 5.9722 0.5732 3.5687 5.5482 -1.0015 1.7704 2.5110 -31.9604 -5.0860 20.4122 35.4099 -19.1024 17.2023 20.3983 -12.0754 8.9937 -0.0000 -0.0000 0.0000 -68.4661 35.1838 108.6616 90.5532 -59.9988 -60.4791 -0.0000 0.0000 -101.8180 -2.4542 -8.3700 0.3575 -7.1250 0.0000 -0.0000 -20.8764 21.7312 12.4990 -0.0000 -0.0000 0.0000 80.4462 23.5917 102.0076 -97.9269 59.7612 -66.8594 0.0000 -0.0000 -20.8254 -13.1076 -5.1955 1.2079 7.1250 -0.0000 -0.0000 11.2513 -35.1296 2.7720
-3.9372 16.5081 34.4967 -165.8830 -79.7613 -163.3380 0.0000 0.0000 0.0000 -13.4472 -6.6721 -38.6584 0.1866 2.7821 7.6726 -0.0226 -2.9896 -0.3527 1.0077 -6.3874 -17.9127 0.0000 0.0000 0.0000 33.3139 -8.1735 -49.4678 -0.5027 -4.5453 12.6160 5.3722 37.1274 18.8526 -0.7338 -5.4727 15.2617 2.4131 2.7575 5.5569 0.3833 3.5462 5.3877 -1.0664 1.7626 2.5720 -31.9290 -5.1174 20.4862 35.5364 -19.1730 16.9782 20.4420 -12.1313 8.9486 0.0000 0.0000 0.0000 -68.2556 35.7670 108.4546 91.2179 -59.9944 -61.0547 -0.0000 0.0000 -101.3510 -2.2440 -8.1158 0.3169 -7.1250 0.0000 -0.0000 -20.7705 21.9700 12.3039 0.0000 0.0000 0.0000 80.3231 23.6767 101.5711 -97.7581 59.7713 -66.7135 0.0000 -0.0000 -19.4883 -13.9052 -4.7167 1.1662 7.1250 -0.0000 -0.0000 10.5271 -34.6838 2.7042
-3.9669 16.5075 34.4977 -167.8990 -79.6771 -161.9000 0.0000 0.0000 0.0000 -13.9797 -6.5427 -37.6911 0.1698 2.6544 7.3179 -0.0214 -2.9240 -0.3686 1.0231 -6.4346 -18.0508 0.0000 0.0000 0.0000 32.4788 -8.2845 -49.1295 -0.5528 -4.7631 13.2340 5.1982 36.6699 19.0896 -0.8798 -5.9797 16.7255 2.2059 2.7507 5.1430 0.2060 3.5422 5.2158 -1.1172 1.7632 2.6207 -31.8979 -5.1499 20.5774 35.6589 -19.2457 16.7447 20.4819 -12.1890 8.8973 0.0000 -0.0000 0.0000 -68.0228 36.3582 108.2592 91.8341 -59.9873 -61.5883 -0.0000 0.0000 -100.8170 -2.1678 -7.5877 0.2864 -7.1250 0.0000 -0.0000 -20.7968 22.4644 12.0674 0.0000 -0.0000 0.0000 80.1589 23.7530 101.0747 -97.6365 59.7785 -66.6085 0.0000 -0.0000 -18.0639 -14.5522 -4.2324 1.0975 7.1250 -0.0000 -0.0000 9.9317 -34.2205 2.6606
-3.9965 16.5061 34.4982 -169.8980 -79.5846 -160.4720 0.0000 0.0000 0.0000 -14.5156 -6.4042 -36.7132 0.1520 2.5121 6.9233 -0.0204 -2.8547 -0.3614 1.0399 -6.4855 -18.1999 0.0000 0.0000 0.0000 31.7081 -8.4518 -48.8100 -0.6018 -4.9658 13.8111 5.0532 36.2915 19.3794 -1.0330 -6.4647 18.1388 1.9857 2.7438 4.7415 0.0351 3.5394 5.0294 -1.1551 1.7634 2.6468 -31.8762 -5.1714 20.6768 35.7677 -19.3019 16.5104 20.5164 -12.2383 8.8346 -0.0000 -0.0000 0.0000 -67.7959 36.9683 108.0508 92.3996 -59.9782 -62.0779 -0.0000 0.0000 -100.2200 -2.1487 -7.0160 0.2626 -7.1250 0.0000 -0.0000 -20.8709 22.9994 11.8393 -0.0000 -0.0000 0.0000 80.1423 23.7751 100.5102 -97.3915 59.7925 -66.3968 0.0000 -0.0000 -16.5493 -14.9552 -3.7892 1.0113 7.1250 -0.0000 -0.0000 9.5459 -33.7851 2.6569
-4.0259 16.5034 34.4972 -171.6510 -79.4944 -159.2800 0.0000 0.0000 0.0000 -15.0003 -6.2549 -35.7520 0.1354 2.3716 6.5339 -0.0195 -2.7883 -0.3519 1.0608 -6.5483 -18.3839 0.0000 0.0000 0.0000 31.0110 -8.6289 -48.4552 -0.6458 -5.1407 14.3103 4.9052 35.9074 19.7264 -1.2002 -6.9509 19.5700 1.7949 2.7509 4.3474 -0.1271 3.5569 4.8361 -1.2012 1.7740 2.6644 -31.8219 -5.2012 20.7805 35.8714 -19.3576 16.2629 20.5347 -12.2833 8.7600 0.0000 -0.0000 0.0000 -67.5080 37.5642 107.8751 92.9451 -59.9672 -62.5502 -0.0000 0.0000 -99.5744 -2.1702 -6.4899 0.2454 -7.1250 0.0000 -0.0000 -20.9680 23.4909 11.6454 0.0000 -0.0000 0.0000 80.1100 23.7703 99.8582 -97.1935 59.8036 -66.2257 0.0000 -0.0000 -15.0956 -15.2621 -3.3429 0.9115 7.1250 -0.0000 -0.0000 9.2416 -33.3405 2.6710
-4.0546 16.5042 34.4949 -173.0400 -79.4151 -158.4550 0.0000 0.0000 0.0000 -15.4105 -6.0861 -34.7910 0.1195 2.2290 6.1389 -0.0186 -2.7218 -0.3351 1.0801 -6.6058 -18.5526 0.0000 0.0000 0.0000 30.2891 -8.6140 -47.7830 -0.6831 -5.2843 14.7212 4.9974 36.0581 18.2934 -1.0393 -6.4837 18.1945 1.6256 2.7480 3.9663 -0.2471 3.5610 4.6455 -1.2162 1.7774 2.6761 -31.7882 -5.2210 20.8454 35.9487 -19.3866 16.0258 20.5403 -12.3105 8.6815 0.0000 0.0000 0.0000 -67.2642 38.1710 107.6352 93.4652 -59.9546 -63.0005 -0.0000 0.0000 -98.8793 -2.1640 -6.0131 0.2268 -7.1250 0.0000 -0.0000 -21.0403 23.9364 11.4568 0.0000 0.0000 0.0000 80.0191 23.7658 99.2021 -97.0993 59.8087 -66.1442 0.0000 -0.0000 -13.8028 -15.4563 -2.9044 0.8027 7.1250 -0.0000 -0.0000 9.0328 -32.8983 2.7070
